<svg width="364" height="75" viewBox="0 0 364 75" fill="none" xmlns="http://www.w3.org/2000/svg">
<path d="M25.408 21.184H36.672C38.976 21.2693 40.384 21.8667 40.896 22.976C41.3227 23.7867 41.536 24.9813 41.536 26.56V40.64C41.536 42.0053 40.9387 43.3067 39.744 44.544C36.16 48.256 30.784 50.112 23.616 50.112C17.2587 50.112 11.7333 47.7227 7.04 42.944C2.34667 38.1227 0 32.32 0 25.536C0 18.752 2.38933 13.0987 7.168 8.576C11.9467 4.01067 17.5787 1.728 24.064 1.728C29.0987 1.728 33.856 3.392 38.336 6.72C39.488 7.57334 40.064 8.53334 40.064 9.6C40.064 10.624 39.5733 11.8187 38.592 13.184C36.928 15.4453 35.4133 16.576 34.048 16.576C33.2373 16.576 31.936 16 30.144 14.848C28.352 13.6533 26.2187 13.056 23.744 13.056C20.5013 13.056 17.6213 14.208 15.104 16.512C12.5867 18.7733 11.328 21.76 11.328 25.472C11.328 29.1413 12.608 32.2773 15.168 34.88C17.728 37.44 20.6293 38.72 23.872 38.72C26.2187 38.72 28.3307 38.336 30.208 37.568V30.592H25.152C23.8293 30.592 22.8907 30.4213 22.336 30.08C21.7813 29.7387 21.4187 29.248 21.248 28.608C21.0773 27.9253 20.992 27.0293 20.992 25.92C20.992 24.768 21.0773 23.8507 21.248 23.168C21.4613 22.4853 21.824 22.016 22.336 21.76C23.104 21.376 24.128 21.184 25.408 21.184Z" fill="#414141"/>
<path d="M66.7435 25.92C73.2715 32.192 77.9008 36.9067 80.6315 40.064C82.0395 41.6427 82.7435 42.9867 82.7435 44.096C82.7435 45.1627 81.8902 46.4427 80.1835 47.936C78.4768 49.3867 77.0688 50.112 75.9595 50.112C74.8928 50.112 73.5915 49.216 72.0555 47.424L57.9755 31.36V43.84C57.9755 44.864 57.9328 45.6107 57.8475 46.08C57.8048 46.5493 57.6128 47.104 57.2715 47.744C56.6742 48.896 55.0102 49.472 52.2795 49.472C49.2928 49.472 47.5435 48.6613 47.0315 47.04C46.7755 46.3573 46.6475 45.2693 46.6475 43.776V8.192C46.6475 7.21067 46.6688 6.48534 46.7115 6.016C46.7968 5.504 47.0102 4.928 47.3515 4.288C47.9488 3.136 49.6128 2.56 52.3435 2.56C55.3302 2.56 57.1008 3.34933 57.6555 4.928C57.8688 5.65334 57.9755 6.76267 57.9755 8.256V20.48C63.7782 13.952 68.4715 8.59734 72.0555 4.416C73.5488 2.66667 74.8502 1.792 75.9595 1.792C77.0688 1.792 78.4768 2.53867 80.1835 4.032C81.8902 5.48267 82.7435 6.76267 82.7435 7.872C82.7435 8.93867 82.1035 10.2187 80.8235 11.712C78.3488 14.5707 74.5088 18.496 69.3035 23.488L66.7435 25.92Z" fill="#414141"/>
<path d="M109.406 2.496L121.246 2.56C127.433 2.56 132.873 4.8 137.566 9.28C142.259 13.7173 144.606 19.2 144.606 25.728C144.606 32.2133 142.302 37.7813 137.694 42.432C133.129 47.0827 127.582 49.408 121.054 49.408H109.342C106.739 49.408 105.118 48.8747 104.478 47.808C103.966 46.912 103.71 45.5467 103.71 43.712V8.128C103.71 7.104 103.731 6.35734 103.774 5.888C103.859 5.41867 104.073 4.864 104.414 4.224C105.011 3.072 106.675 2.496 109.406 2.496ZM121.246 38.08C124.318 38.08 127.091 36.9493 129.566 34.688C132.041 32.384 133.278 29.504 133.278 26.048C133.278 22.592 132.062 19.712 129.63 17.408C127.241 15.0613 124.425 13.888 121.182 13.888H115.038V38.08H121.246Z" fill="#414141"/>
<path d="M181.285 28.608C181.285 31.2107 180.623 33.152 179.3 34.432C178.02 35.6693 176.591 36.288 175.012 36.288H159.844C159.844 37.4827 160.548 38.4853 161.956 39.296C163.364 40.1067 164.772 40.512 166.18 40.512C168.655 40.512 170.597 40.256 172.005 39.744L172.708 39.488C173.732 39.0187 174.586 38.784 175.268 38.784C176.634 38.784 177.807 39.744 178.788 41.664C179.343 42.816 179.62 43.7973 179.62 44.608C179.62 48.4053 175.076 50.304 165.988 50.304C162.831 50.304 160.015 49.7707 157.54 48.704C155.108 47.5947 153.21 46.144 151.844 44.352C149.156 40.896 147.812 37.0347 147.812 32.768C147.812 27.392 149.54 23.104 152.996 19.904C156.495 16.6613 160.847 15.04 166.052 15.04C171.983 15.04 176.335 17.1307 179.108 21.312C180.559 23.5307 181.285 25.9627 181.285 28.608ZM167.78 30.464C169.402 30.464 170.212 29.7813 170.212 28.416C170.212 27.4347 169.829 26.6453 169.061 26.048C168.335 25.4507 167.268 25.152 165.86 25.152C164.495 25.152 163.13 25.728 161.764 26.88C160.399 27.9893 159.716 29.184 159.716 30.464H167.78Z" fill="#414141"/>
<path d="M185.716 46.464C184.905 45.952 184.5 45.1413 184.5 44.032C184.5 42.9227 185.311 41.2373 186.932 38.976C187.401 38.2507 188.148 37.888 189.172 37.888C190.239 37.888 191.668 38.4213 193.46 39.488C195.252 40.512 196.873 41.024 198.324 41.024C200.927 41.024 202.228 40.512 202.228 39.488C202.228 38.6773 200.799 38.08 197.94 37.696C195.252 37.312 192.585 36.3093 189.94 34.688C188.703 33.92 187.679 32.7253 186.868 31.104C186.057 29.44 185.652 27.4773 185.652 25.216C185.652 18.4747 190.281 15.104 199.54 15.104C202.569 15.104 205.684 15.8293 208.884 17.28C210.377 17.9627 211.124 18.816 211.124 19.84C211.124 20.864 210.655 22.1227 209.716 23.616C208.777 25.1093 207.817 25.856 206.836 25.856C206.324 25.856 205.364 25.536 203.956 24.896C202.591 24.256 201.097 23.936 199.476 23.936C196.959 23.936 195.7 24.4053 195.7 25.344C195.7 26.624 197.151 27.456 200.052 27.84C202.868 28.1387 205.599 28.9493 208.244 30.272C209.481 30.8693 210.505 31.9147 211.316 33.408C212.169 34.8587 212.596 36.6933 212.596 38.912C212.596 41.1307 212.169 43.0293 211.316 44.608C210.505 46.144 209.353 47.296 207.86 48.064C205.129 49.3867 201.695 50.048 197.556 50.048C193.46 50.048 189.513 48.8533 185.716 46.464Z" fill="#414141"/>
<path d="M216.772 21.376C216.772 20.3947 216.794 19.6693 216.836 19.2C216.922 18.688 217.114 18.112 217.412 17.472C218.01 16.3627 219.674 15.808 222.404 15.808C224.452 15.808 225.903 16.1707 226.757 16.896C227.482 17.4933 227.866 18.4107 227.908 19.648C227.951 20.0747 227.972 20.6933 227.972 21.504V43.904C227.972 44.8853 227.93 45.632 227.844 46.144C227.802 46.6133 227.61 47.168 227.268 47.808C226.714 48.9173 225.071 49.472 222.34 49.472C219.652 49.472 218.01 48.896 217.412 47.744C217.114 47.104 216.922 46.5493 216.836 46.08C216.794 45.6107 216.772 44.864 216.772 43.84V21.376ZM227.268 9.536C226.97 10.1333 226.415 10.56 225.604 10.816C224.794 11.072 223.706 11.2 222.34 11.2C221.018 11.2 219.951 11.072 219.14 10.816C218.33 10.56 217.754 10.112 217.412 9.472C217.114 8.832 216.922 8.27733 216.836 7.808C216.794 7.296 216.772 6.54933 216.772 5.568C216.772 4.58667 216.794 3.86133 216.836 3.392C216.922 2.88 217.114 2.32533 217.412 1.728C218.01 0.576 219.674 0 222.404 0C225.092 0 226.714 0.576 227.268 1.728C227.61 2.368 227.802 2.944 227.844 3.456C227.93 3.92534 227.972 4.65067 227.972 5.632C227.972 6.61333 227.93 7.36 227.844 7.872C227.802 8.34133 227.61 8.896 227.268 9.536Z" fill="#414141"/>
<path d="M254.461 45.248C252.84 47.3813 250.258 48.448 246.717 48.448C243.176 48.448 239.848 46.8267 236.733 43.584C233.661 40.2987 232.125 36.48 232.125 32.128C232.125 27.776 233.682 23.9573 236.797 20.672C239.912 17.3867 243.325 15.744 247.037 15.744C248.488 15.744 249.81 16.0213 251.005 16.576C252.2 17.088 253.01 17.5787 253.437 18.048C253.906 18.4747 254.269 18.88 254.525 19.264C254.653 18.0693 255.08 17.1733 255.805 16.576C256.573 15.936 257.789 15.616 259.453 15.616C261.117 15.616 262.333 15.744 263.101 16C263.869 16.256 264.402 16.704 264.701 17.344C265.042 17.9413 265.234 18.4747 265.277 18.944C265.362 19.4133 265.405 20.1387 265.405 21.12V47.616C265.405 52.5227 263.698 56.4693 260.285 59.456C256.872 62.4853 253.032 64 248.765 64C245.522 64 242.429 63.2107 239.485 61.632C236.541 60.0533 235.069 58.624 235.069 57.344C235.069 55.68 235.709 54.208 236.989 52.928C237.8 52.032 238.418 51.4133 238.845 51.072C239.314 50.7307 239.848 50.56 240.445 50.56C241.042 50.56 241.661 50.816 242.301 51.328C244.349 52.9067 246.568 53.696 248.957 53.696C250.578 53.696 251.901 53.056 252.925 51.776C253.949 50.496 254.461 48.96 254.461 47.168V45.248ZM243.069 32.192C243.069 33.5573 243.602 34.7947 244.669 35.904C245.778 37.0133 247.101 37.568 248.637 37.568C250.216 37.568 251.517 37.0133 252.541 35.904C253.565 34.752 254.077 33.5147 254.077 32.192C254.077 30.8267 253.586 29.568 252.605 28.416C251.624 27.2213 250.301 26.624 248.637 26.624C246.973 26.624 245.629 27.2 244.605 28.352C243.581 29.504 243.069 30.784 243.069 32.192Z" fill="#414141"/>
<path d="M289.275 15.744C293.541 15.744 297.082 17.3867 299.898 20.672C302.757 23.9147 304.186 27.8827 304.186 32.576V43.84C304.186 44.8213 304.144 45.568 304.059 46.08C304.016 46.5493 303.845 47.0827 303.547 47.68C302.949 48.832 301.285 49.408 298.555 49.408C295.525 49.408 293.776 48.6187 293.306 47.04C293.05 46.3147 292.922 45.2267 292.922 43.776V32.512C292.922 30.7627 292.411 29.3973 291.387 28.416C290.405 27.4347 289.061 26.944 287.354 26.944C285.69 26.944 284.325 27.456 283.258 28.48C282.234 29.504 281.723 30.848 281.723 32.512V43.84C281.723 44.8213 281.68 45.568 281.594 46.08C281.552 46.5493 281.36 47.0827 281.018 47.68C280.464 48.832 278.821 49.408 276.09 49.408C273.402 49.408 271.76 48.832 271.163 47.68C270.864 47.04 270.672 46.4853 270.586 46.016C270.544 45.504 270.522 44.7573 270.522 43.776V21.12C270.522 20.1813 270.544 19.4773 270.586 19.008C270.672 18.496 270.885 17.9413 271.227 17.344C271.824 16.2773 273.466 15.744 276.154 15.744C278.757 15.744 280.357 16.2347 280.954 17.216C281.381 17.9413 281.594 18.816 281.594 19.84C281.765 19.5413 282.149 19.1147 282.746 18.56C283.344 18.0053 283.92 17.5573 284.474 17.216C285.925 16.2347 287.525 15.744 289.275 15.744Z" fill="#414141"/>
<path fill-rule="evenodd" clip-rule="evenodd" d="M331.346 45.3008C330.365 45.8574 329.513 46.34 328.889 46.673C327.814 47.2464 326.74 47.8158 325.67 48.3837C317.253 52.8479 309.005 57.2229 301.385 62.791C300.716 63.2798 299.778 63.1339 299.289 62.465C298.8 61.7961 298.946 60.8577 299.615 60.3689C307.421 54.6647 315.869 50.1847 324.264 45.7329C325.336 45.1643 326.408 44.5961 327.477 44.0259C327.988 43.7535 328.741 43.3268 329.642 42.8159C332.311 41.3024 336.284 39.0499 339.14 37.8775C340.099 37.4838 341.055 37.1573 341.86 37.0444C342.254 36.9891 342.749 36.9635 343.235 37.1018C343.784 37.2581 344.361 37.6463 344.623 38.3623C344.848 38.9759 344.743 39.5812 344.612 40.0148C344.472 40.4757 344.233 40.9612 343.936 41.461C343.34 42.4647 342.374 43.7432 341 45.3411C335.342 51.9251 328.425 57.4262 321.676 62.7929C319.394 64.6077 317.131 66.4071 314.943 68.2278C316.214 67.7429 317.585 67.2292 318.854 66.825C319.769 66.5334 321.603 65.7216 324.052 64.6352C326.447 63.5726 329.332 62.2931 332.222 61.1418C335.101 59.9946 338.045 58.9502 340.556 58.3758C341.81 58.089 343.014 57.9055 344.079 57.9035C345.112 57.9017 346.217 58.0686 347.094 58.6826C347.984 59.3055 347.958 60.3005 347.889 60.7623C347.811 61.2757 347.6 61.8043 347.385 62.2623C346.948 63.1918 346.258 64.3191 345.61 65.3755L345.592 65.4054C344.912 66.5153 344.265 67.5723 343.825 68.4668C343.605 68.9139 343.466 69.262 343.398 69.5135C343.392 69.5351 343.387 69.5549 343.383 69.573C343.441 69.6149 343.53 69.6717 343.665 69.7395C344.065 69.94 344.667 70.1372 345.474 70.3122C347.079 70.6602 349.205 70.861 351.449 70.9669C354.911 71.1304 358.438 71.0625 360.509 71.0227C361.127 71.0108 361.615 71.0014 361.933 71.0014C362.762 71.0014 363.433 71.673 363.433 72.5014C363.433 73.3298 362.762 74.0014 361.933 74.0014C361.671 74.0014 361.238 74.0098 360.674 74.0208C358.639 74.0603 354.896 74.133 351.308 73.9636C349.013 73.8552 346.69 73.6455 344.839 73.2441C343.918 73.0444 343.04 72.7822 342.32 72.4207C341.639 72.0791 340.84 71.5193 340.501 70.587C340.252 69.9022 340.374 69.2044 340.502 68.7305C340.643 68.21 340.876 67.6643 341.133 67.1417C341.637 66.1183 342.347 64.9593 342.993 63.9051L343.034 63.8382C343.718 62.7216 344.315 61.7415 344.669 60.9876C344.677 60.9705 344.685 60.9537 344.692 60.9373C344.525 60.9162 344.324 60.9031 344.084 60.9035C343.33 60.9049 342.368 61.0388 341.225 61.3002C338.943 61.8222 336.171 62.7979 333.332 63.9287C330.504 65.0554 327.671 66.3118 325.269 67.3774L325.105 67.4502C322.826 68.4614 320.854 69.3361 319.765 69.6834C318.39 70.1214 316.866 70.7041 315.417 71.2582L315.343 71.2862C313.914 71.8326 312.505 72.3712 311.507 72.6426C311.25 72.7126 310.99 72.7733 310.744 72.8114C310.519 72.8461 310.206 72.8788 309.881 72.8311C309.588 72.7879 308.895 72.613 308.543 71.8818C308.218 71.2088 308.447 70.5886 308.553 70.3503C308.783 69.8321 309.253 69.3058 309.737 68.8198C310.271 68.283 311.009 67.6176 311.97 66.8052C314.628 64.5584 317.339 62.4034 320.033 60.2606C326.696 54.9634 333.264 49.7403 338.725 43.3858C339.841 42.0871 340.608 41.0872 341.101 40.3372C340.853 40.4247 340.579 40.5296 340.279 40.6527C337.62 41.7446 334.005 43.7939 331.346 45.3008ZM341.759 39.0716C341.759 39.0715 341.758 39.0759 341.756 39.0855C341.757 39.0765 341.758 39.0718 341.759 39.0716ZM344.924 60.2983C344.924 60.2983 344.924 60.2999 344.924 60.3032C344.924 60.3 344.924 60.2984 344.924 60.2983ZM310.213 69.8553C310.213 69.8553 310.214 69.8552 310.216 69.8552Z" fill="#414141"/>
</svg>
