<svg width="170" height="45" viewBox="0 0 170 45" fill="none" xmlns="http://www.w3.org/2000/svg">
<path d="M79.2246 22.25V24.5156C79.2246 27.6309 78.8187 30.4251 78.0068 32.8984C77.195 35.3717 76.0339 37.4769 74.5234 39.2139C73.0319 40.9508 71.2383 42.2819 69.1426 43.207C67.0469 44.1133 64.7246 44.5664 62.1758 44.5664C59.6458 44.5664 57.333 44.1133 55.2373 43.207C53.1605 42.2819 51.3574 40.9508 49.8281 39.2139C48.2988 37.4769 47.1094 35.3717 46.2598 32.8984C45.429 30.4251 45.0137 27.6309 45.0137 24.5156V22.25C45.0137 19.1348 45.429 16.3499 46.2598 13.8955C47.0905 11.4222 48.2611 9.31706 49.7715 7.58008C51.3008 5.82422 53.1038 4.49316 55.1807 3.58691C57.2764 2.66178 59.5892 2.19922 62.1191 2.19922C64.668 2.19922 66.9902 2.66178 69.0859 3.58691C71.1816 4.49316 72.9847 5.82422 74.4951 7.58008C76.0055 9.31706 77.1667 11.4222 77.9785 13.8955C78.8092 16.3499 79.2246 19.1348 79.2246 22.25ZM72.1162 24.5156V22.1934C72.1162 19.89 71.8896 17.8604 71.4365 16.1045C71.0023 14.3298 70.3509 12.8477 69.4824 11.6582C68.6328 10.4499 67.585 9.54362 66.3389 8.93945C65.0928 8.31641 63.6862 8.00488 62.1191 8.00488C60.5521 8.00488 59.1549 8.31641 57.9277 8.93945C56.7005 9.54362 55.6527 10.4499 54.7842 11.6582C53.9346 12.8477 53.2832 14.3298 52.8301 16.1045C52.377 17.8604 52.1504 19.89 52.1504 22.1934V24.5156C52.1504 26.819 52.377 28.8581 52.8301 30.6328C53.2832 32.4076 53.944 33.9085 54.8125 35.1357C55.6999 36.3441 56.7572 37.2598 57.9844 37.8828C59.2116 38.487 60.6087 38.7891 62.1758 38.7891C63.7617 38.7891 65.1683 38.487 66.3955 37.8828C67.6227 37.2598 68.6611 36.3441 69.5107 35.1357C70.3604 33.9085 71.0023 32.4076 71.4365 30.6328C71.8896 28.8581 72.1162 26.819 72.1162 24.5156Z" fill="#888888"/>
<path d="M92.96 0.5V44H86.1064V0.5H92.96Z" fill="#888888"/>
<path d="M107.743 13.3574V44H100.89V13.3574H107.743ZM100.437 5.31445C100.437 4.27604 100.776 3.41699 101.456 2.7373C102.155 2.03874 103.118 1.68945 104.345 1.68945C105.553 1.68945 106.507 2.03874 107.205 2.7373C107.904 3.41699 108.253 4.27604 108.253 5.31445C108.253 6.33398 107.904 7.18359 107.205 7.86328C106.507 8.54297 105.553 8.88281 104.345 8.88281C103.118 8.88281 102.155 8.54297 101.456 7.86328C100.776 7.18359 100.437 6.33398 100.437 5.31445Z" fill="#888888"/>
<path d="M125.188 38.5908L132.693 13.3574H139.773L129.125 44H124.707L125.188 38.5908ZM119.439 13.3574L127.086 38.7041L127.454 44H123.036L112.331 13.3574H119.439Z" fill="#888888"/>
<path d="M157.105 44.5664C154.84 44.5664 152.791 44.1982 150.96 43.4619C149.147 42.7067 147.599 41.6589 146.315 40.3184C145.05 38.9779 144.078 37.4014 143.398 35.5889C142.719 33.7764 142.379 31.8223 142.379 29.7266V28.5938C142.379 26.196 142.728 24.0247 143.427 22.0801C144.125 20.1354 145.098 18.474 146.344 17.0957C147.59 15.6986 149.062 14.6318 150.762 13.8955C152.461 13.1592 154.302 12.791 156.284 12.791C158.474 12.791 160.391 13.1592 162.033 13.8955C163.676 14.6318 165.035 15.6702 166.111 17.0107C167.206 18.3324 168.018 19.9089 168.547 21.7402C169.094 23.5716 169.368 25.5918 169.368 27.8008V30.7178H145.692V25.8184H162.628V25.2803C162.59 24.0531 162.345 22.9014 161.892 21.8252C161.457 20.749 160.787 19.8805 159.881 19.2197C158.975 18.5589 157.766 18.2285 156.256 18.2285C155.123 18.2285 154.113 18.474 153.226 18.9648C152.357 19.4368 151.63 20.126 151.045 21.0322C150.46 21.9385 150.007 23.0335 149.686 24.3174C149.383 25.5824 149.232 27.0078 149.232 28.5938V29.7266C149.232 31.0671 149.412 32.3132 149.771 33.4648C150.148 34.5977 150.696 35.5889 151.413 36.4385C152.131 37.2881 152.999 37.9583 154.019 38.4492C155.038 38.9212 156.199 39.1572 157.502 39.1572C159.145 39.1572 160.608 38.8268 161.892 38.166C163.175 37.5052 164.289 36.5706 165.233 35.3623L168.83 38.8457C168.169 39.8086 167.31 40.7337 166.253 41.6211C165.196 42.4896 163.902 43.1976 162.373 43.7451C160.863 44.2926 159.107 44.5664 157.105 44.5664Z" fill="#888888"/>
<path d="M26.7782 2C26.0719 3.00935 10.001 10.3351 5.17801 17.2089C0.354981 24.0844 -1.02189 29.4969 0.727056 34.5859C2.476 39.6731 5.8187 39.4445 7.72284 41.1221C9.62897 42.7997 12.2136 44.8377 16.3422 44.0147C21.7482 42.9368 26.9573 39.7487 29.5499 30.8123C32.1404 21.8758 30.4412 14.0489 29.3449 9.72841C28.679 7.106 27.8217 4.52446 26.7782 2V2ZM26.5036 3.50875L8.15859 41.465L7.0165 40.4504L26.5036 3.50875Z" fill="#39F8E1"/>
</svg>
