<?xml version="1.0" encoding="UTF-8"?>
<svg width="368px" height="78px" viewBox="0 0 368 78" version="1.1" xmlns="http://www.w3.org/2000/svg" xmlns:xlink="http://www.w3.org/1999/xlink">
    <title>logo-gabriella</title>
    <g id="Page-1" stroke="none" stroke-width="1" fill="none" fill-rule="evenodd">
        <g id="logo-gabriella" transform="translate(0.600000, 0.528000)">
            <path d="M25.408,21.184 L36.672,21.184 C38.976,21.2693 40.384,21.8667 40.896,22.976 C41.323,23.7867 41.536,24.9813 41.536,26.56 L41.536,40.64 C41.536,42.0053 40.939,43.3067 39.744,44.544 C36.16,48.256 30.784,50.112 23.616,50.112 C17.2587,50.112 11.7333,47.723 7.04,42.944 C2.3467,38.1227 1.42108547e-14,32.32 1.42108547e-14,25.536 C1.42108547e-14,18.752 2.3893,13.0987 7.168,8.576 C11.9467,4.0107 17.5787,1.728 24.064,1.728 C29.0987,1.728 33.856,3.392 38.336,6.72 C39.488,7.5733 40.064,8.5333 40.064,9.6 C40.064,10.624 39.573,11.8187 38.592,13.184 C36.928,15.4453 35.4133,16.576 34.048,16.576 C33.2373,16.576 31.936,16 30.144,14.848 C28.352,13.6533 26.2187,13.056 23.744,13.056 C20.5013,13.056 17.6213,14.208 15.104,16.512 C12.5867,18.7733 11.328,21.76 11.328,25.472 C11.328,29.1413 12.608,32.2773 15.168,34.88 C17.728,37.44 20.6293,38.72 23.872,38.72 C26.2187,38.72 28.3307,38.336 30.208,37.568 L30.208,30.592 L25.152,30.592 C23.8293,30.592 22.8907,30.4213 22.336,30.08 C21.7813,29.7387 21.4187,29.248 21.248,28.608 C21.0773,27.9253 20.992,27.0293 20.992,25.92 C20.992,24.768 21.0773,23.8507 21.248,23.168 C21.4613,22.4853 21.824,22.016 22.336,21.76 C23.104,21.376 24.128,21.184 25.408,21.184 Z M66.744,25.92 C73.272,32.192 77.901,36.9067 80.632,40.064 C82.04,41.6427 82.744,42.9867 82.744,44.096 C82.744,45.1627 81.89,46.443 80.184,47.936 C78.477,49.387 77.069,50.112 75.96,50.112 C74.893,50.112 73.592,49.216 72.056,47.424 L57.976,31.36 L57.976,43.84 C57.976,44.864 57.933,45.611 57.848,46.08 C57.805,46.549 57.613,47.104 57.272,47.744 C56.674,48.896 55.01,49.472 52.28,49.472 C49.293,49.472 47.544,48.661 47.032,47.04 C46.776,46.357 46.648,45.2693 46.648,43.776 L46.648,8.192 C46.648,7.2107 46.669,6.4853 46.712,6.016 C46.797,5.504 47.01,4.928 47.352,4.288 C47.949,3.136 49.613,2.56 52.344,2.56 C55.33,2.56 57.101,3.3493 57.656,4.928 C57.869,5.6533 57.976,6.7627 57.976,8.256 L57.976,20.48 C63.778,13.952 68.472,8.5973 72.056,4.416 C73.549,2.6667 74.85,1.792 75.96,1.792 C77.069,1.792 78.477,2.5387 80.184,4.032 C81.89,5.4827 82.744,6.7627 82.744,7.872 C82.744,8.9387 82.104,10.2187 80.824,11.712 C78.349,14.5707 74.509,18.496 69.304,23.488 L66.744,25.92 Z" id="Shape" fill="#4CE8D5" fill-rule="nonzero"></path>
            <path d="M109.406,2.496 L121.246,2.56 C127.433,2.56 132.873,4.8 137.566,9.28 C142.259,13.7173 144.606,19.2 144.606,25.728 C144.606,32.2133 142.302,37.7813 137.694,42.432 C133.129,47.083 127.582,49.408 121.054,49.408 L109.342,49.408 C106.739,49.408 105.118,48.875 104.478,47.808 C103.966,46.912 103.71,45.547 103.71,43.712 L103.71,8.128 C103.71,7.104 103.731,6.3573 103.774,5.888 C103.859,5.4187 104.073,4.864 104.414,4.224 C105.011,3.072 106.675,2.496 109.406,2.496 Z M121.246,38.08 C124.318,38.08 127.091,36.9493 129.566,34.688 C132.041,32.384 133.278,29.504 133.278,26.048 C133.278,22.592 132.062,19.712 129.63,17.408 C127.241,15.0613 124.425,13.888 121.182,13.888 L115.038,13.888 L115.038,38.08 L121.246,38.08 Z M181.285,28.608 C181.285,31.2107 180.623,33.152 179.301,34.432 C178.021,35.6693 176.591,36.288 175.013,36.288 L159.845,36.288 C159.845,37.4827 160.549,38.4853 161.957,39.296 C163.365,40.1067 164.773,40.512 166.181,40.512 C168.655,40.512 170.597,40.256 172.005,39.744 L172.709,39.488 C173.733,39.0187 174.586,38.784 175.269,38.784 C176.634,38.784 177.807,39.744 178.789,41.664 C179.343,42.816 179.621,43.7973 179.621,44.608 C179.621,48.405 175.077,50.304 165.989,50.304 C162.831,50.304 160.015,49.771 157.541,48.704 C155.109,47.595 153.21,46.144 151.845,44.352 C149.157,40.896 147.813,37.0347 147.813,32.768 C147.813,27.392 149.541,23.104 152.997,19.904 C156.495,16.6613 160.847,15.04 166.053,15.04 C171.983,15.04 176.335,17.1307 179.108,21.312 C180.559,23.5307 181.285,25.9627 181.285,28.608 Z M167.781,30.464 C169.402,30.464 170.213,29.7813 170.213,28.416 C170.213,27.4347 169.829,26.6453 169.061,26.048 C168.335,25.4507 167.269,25.152 165.861,25.152 C164.495,25.152 163.13,25.728 161.765,26.88 C160.399,27.9893 159.717,29.184 159.717,30.464 L167.781,30.464 Z M185.716,46.464 C184.905,45.952 184.5,45.1413 184.5,44.032 C184.5,42.9227 185.311,41.2373 186.932,38.976 C187.401,38.2507 188.148,37.888 189.172,37.888 C190.239,37.888 191.668,38.4213 193.46,39.488 C195.252,40.512 196.873,41.024 198.324,41.024 C200.927,41.024 202.228,40.512 202.228,39.488 C202.228,38.6773 200.799,38.08 197.94,37.696 C195.252,37.312 192.585,36.3093 189.94,34.688 C188.703,33.92 187.679,32.7253 186.868,31.104 C186.057,29.44 185.652,27.4773 185.652,25.216 C185.652,18.4747 190.281,15.104 199.54,15.104 C202.569,15.104 205.684,15.8293 208.884,17.28 C210.377,17.9627 211.124,18.816 211.124,19.84 C211.124,20.864 210.655,22.1227 209.716,23.616 C208.777,25.1093 207.817,25.856 206.836,25.856 C206.324,25.856 205.364,25.536 203.956,24.896 C202.591,24.256 201.097,23.936 199.476,23.936 C196.959,23.936 195.7,24.4053 195.7,25.344 C195.7,26.624 197.151,27.456 200.052,27.84 C202.868,28.1387 205.599,28.9493 208.244,30.272 C209.481,30.8693 210.505,31.9147 211.316,33.408 C212.169,34.8587 212.596,36.6933 212.596,38.912 C212.596,41.1307 212.169,43.0293 211.316,44.608 C210.505,46.144 209.353,47.296 207.86,48.064 C205.129,49.387 201.695,50.048 197.556,50.048 C193.46,50.048 189.513,48.853 185.716,46.464 Z M216.773,21.376 C216.773,20.3947 216.794,19.6693 216.837,19.2 C216.922,18.688 217.114,18.112 217.413,17.472 C218.01,16.3627 219.674,15.808 222.405,15.808 C224.453,15.808 225.903,16.1707 226.757,16.896 C227.482,17.4933 227.866,18.4107 227.909,19.648 C227.951,20.0747 227.973,20.6933 227.973,21.504 L227.973,43.904 C227.973,44.8853 227.93,45.632 227.845,46.144 C227.802,46.613 227.61,47.168 227.269,47.808 C226.714,48.917 225.071,49.472 222.341,49.472 C219.653,49.472 218.01,48.896 217.413,47.744 C217.114,47.104 216.922,46.549 216.837,46.08 C216.794,45.611 216.773,44.864 216.773,43.84 L216.773,21.376 Z M227.269,9.536 C226.97,10.1333 226.415,10.56 225.605,10.816 C224.794,11.072 223.706,11.2 222.341,11.2 C221.018,11.2 219.951,11.072 219.141,10.816 C218.33,10.56 217.754,10.112 217.413,9.472 C217.114,8.832 216.922,8.2773 216.837,7.808 C216.794,7.296 216.773,6.5493 216.773,5.568 C216.773,4.5867 216.794,3.8613 216.837,3.392 C216.922,2.88 217.114,2.3253 217.413,1.728 C218.01,0.576 219.674,0 222.405,0 C225.093,0 226.714,0.576 227.269,1.728 C227.61,2.368 227.802,2.944 227.845,3.456 C227.93,3.9253 227.973,4.6507 227.973,5.632 C227.973,6.6133 227.93,7.36 227.845,7.872 C227.802,8.3413 227.61,8.896 227.269,9.536 Z M254.461,45.248 C252.84,47.381 250.258,48.448 246.717,48.448 C243.176,48.448 239.848,46.827 236.733,43.584 C233.661,40.2987 232.125,36.48 232.125,32.128 C232.125,27.776 233.682,23.9573 236.797,20.672 C239.912,17.3867 243.325,15.744 247.037,15.744 C248.488,15.744 249.81,16.0213 251.005,16.576 C252.2,17.088 253.01,17.5787 253.437,18.048 C253.906,18.4747 254.269,18.88 254.525,19.264 C254.653,18.0693 255.08,17.1733 255.805,16.576 C256.573,15.936 257.789,15.616 259.453,15.616 C261.117,15.616 262.333,15.744 263.101,16 C263.869,16.256 264.402,16.704 264.701,17.344 C265.042,17.9413 265.234,18.4747 265.277,18.944 C265.362,19.4133 265.405,20.1387 265.405,21.12 L265.405,47.616 C265.405,52.523 263.698,56.469 260.285,59.456 C256.872,62.485 253.032,64 248.765,64 C245.522,64 242.429,63.211 239.485,61.632 C236.541,60.053 235.069,58.624 235.069,57.344 C235.069,55.68 235.709,54.208 236.989,52.928 C237.8,52.032 238.418,51.413 238.845,51.072 C239.314,50.731 239.848,50.56 240.445,50.56 C241.042,50.56 241.661,50.816 242.301,51.328 C244.349,52.907 246.568,53.696 248.957,53.696 C250.578,53.696 251.901,53.056 252.925,51.776 C253.949,50.496 254.461,48.96 254.461,47.168 L254.461,45.248 Z M243.069,32.192 C243.069,33.5573 243.602,34.7947 244.669,35.904 C245.778,37.0133 247.101,37.568 248.637,37.568 C250.216,37.568 251.517,37.0133 252.541,35.904 C253.565,34.752 254.077,33.5147 254.077,32.192 C254.077,30.8267 253.586,29.568 252.605,28.416 C251.624,27.2213 250.301,26.624 248.637,26.624 C246.973,26.624 245.629,27.2 244.605,28.352 C243.581,29.504 243.069,30.784 243.069,32.192 Z M289.275,15.744 C293.541,15.744 297.083,17.3867 299.899,20.672 C302.757,23.9147 304.187,27.8827 304.187,32.576 L304.187,43.84 C304.187,44.8213 304.144,45.568 304.059,46.08 C304.016,46.549 303.845,47.083 303.547,47.68 C302.949,48.832 301.285,49.408 298.555,49.408 C295.525,49.408 293.776,48.619 293.307,47.04 C293.051,46.315 292.923,45.2267 292.923,43.776 L292.923,32.512 C292.923,30.7627 292.411,29.3973 291.387,28.416 C290.405,27.4347 289.061,26.944 287.355,26.944 C285.691,26.944 284.325,27.456 283.259,28.48 C282.235,29.504 281.723,30.848 281.723,32.512 L281.723,43.84 C281.723,44.8213 281.68,45.568 281.595,46.08 C281.552,46.549 281.36,47.083 281.019,47.68 C280.464,48.832 278.821,49.408 276.091,49.408 C273.403,49.408 271.76,48.832 271.163,47.68 C270.864,47.04 270.672,46.485 270.587,46.016 C270.544,45.504 270.523,44.7573 270.523,43.776 L270.523,21.12 C270.523,20.1813 270.544,19.4773 270.587,19.008 C270.672,18.496 270.885,17.9413 271.227,17.344 C271.824,16.2773 273.467,15.744 276.155,15.744 C278.757,15.744 280.357,16.2347 280.955,17.216 C281.381,17.9413 281.595,18.816 281.595,19.84 C281.765,19.5413 282.149,19.1147 282.747,18.56 C283.344,18.0053 283.92,17.5573 284.475,17.216 C285.925,16.2347 287.525,15.744 289.275,15.744 Z" id="Shape" fill="#343434" fill-rule="nonzero"></path>
            <path d="M304.264,64.22 C312.96,57.865 322.463,53.047 331.947,47.989 C336.286,45.675 354.451,34.4073 343.626,47.003 C335.854,56.048 325.769,62.927 316.702,70.591 C309.126,76.994 317.287,72.738 323.073,70.894 C327.134,69.6 345.951,59.719 349.997,62.551 C351.342,63.493 344.972,70.784 345.674,72.714 C346.816,75.854 363.105,75.141 365.697,75.141" id="Path" stroke="#000000" stroke-width="3" stroke-linecap="round"></path>
        </g>
    </g>
</svg>